<!-- <?xml version="1.0" encoding="UTF-8"?>
<svg version="1.1" viewBox="0 0 512 512" xmlns="http://www.w3.org/2000/svg">
  <path transform="translate(50,140) scale(0.22)" d="m0 0h47l15 4 19 9 12 9 11 10 9 11 8 13 7 16 6 22 3 15v4l14-8 22-14 10-6 14-5 4-1h15l14 7 9 9 10 15 4-1 17-12 18-10 14-6 8-2h14l8 3 6 5 7 14 5 21 9 46 12 52 4 13 5 9 5 3 5 2 26 3-1 5-6 7-10 7-14 8-14 5-10 2h-19l-17-4-12-5-11-8-7-8-7-14-5-17-11-54-3-5-10-6-2 5v11l7 35 4 27v11l-3 10-5 5-5 4-36 12-14 3h-11l-6-4-5-13-5-22-9-57-3-15-4-5-2-1h-6l-3 5v22l4 23 3 19v18l-3 10-6 9-10 7-10 3h-23l-22-5-9-5-7-7-5-10-2-8-11-115-3-18-4-11-7-12-8-9-14-10-19-8-17-4-16-2-15-1h-12l-35 2-30 3-27 5-21 5-43 14-37 16-19 9-12 7 2 4 13 9 11 5 17 4 9 1h33l27-3 35-7 41-12 26-9 33-13 29-12 7-2h7l5 5 5 16 3 15v8l-6 3-31 6-49 9-39 7-44 6-29 3-31 2h-26l-19-3-17-5-16-8-11-7-10-9-4-6-1-7 3-7 7-8 9-8 14-10 20-12 19-10 28-12 43-16 25-9 36-12 34-8 32-5 33-3z" fill="#DC4B4C"/>
</svg> -->

<!-- <svg width="800" height="800" xmlns="http://www.w3.org/2000/svg" version="1.1">
 <g>
  <title>Layer 1</title>
  <path id="svg_2" fill="#dc4b4c" d="m348,257l47,0l15,4l19,9l12,9l11,10l9,11l8,13l7,16l6,22l3,15l0,4l14,-8l22,-14l10,-6l14,-5l4,-1l15,0l14,7l9,9l10,15l4,-1l17,-12l18,-10l14,-6l8,-2l14,0l8,3l6,5l7,14l5,21l9,46l12,52l4,13l5,9l5,3l5,2l26,3l-1,5l-6,7l-10,7l-14,8l-14,5l-10,2l-19,0l-17,-4l-12,-5l-11,-8l-7,-8l-7,-14l-5,-17l-11,-54l-3,-5l-10,-6l-2,5l0,11l7,35l4,27l0,11l-3,10l-5,5l-5,4l-36,12l-14,3l-11,0l-6,-4l-5,-13l-5,-22l-9,-57l-3,-15l-4,-5l-2,-1l-6,0l-3,5l0,22l4,23l3,19l0,18l-3,10l-6,9l-10,7l-10,3l-23,0l-22,-5l-9,-5l-7,-7l-5,-10l-2,-8l-11,-115l-3,-18l-4,-11l-7,-12l-8,-9l-14,-10l-19,-8l-17,-4l-16,-2l-15,-1l-12,0l-35,2l-30,3l-27,5l-21,5l-43,14l-37,16l-19,9l-12,7l2,4l13,9l11,5l17,4l9,1l33,0l27,-3l35,-7l41,-12l26,-9l33,-13l29,-12l7,-2l7,0l5,5l5,16l3,15l0,8l-6,3l-31,6l-49,9l-39,7l-44,6l-29,3l-31,2l-26,0l-19,-3l-17,-5l-16,-8l-11,-7l-10,-9l-4,-6l-1,-7l3,-7l7,-8l9,-8l14,-10l20,-12l19,-10l28,-12l43,-16l25,-9l36,-12l34,-8l32,-5l33,-3l16,-1z"/>
 </g>
</svg> -->

<svg width="800" height="800" xmlns="http://www.w3.org/2000/svg" version="1.1">
 <g>
  <title>Layer 1</title>
  <path stroke="null" id="svg_2" fill="#dc4b4c" d="m347.56511,243.79787l50.88241,0l16.23907,4.33042l20.56948,9.74344l12.99125,9.74344l11.90865,10.82604l9.74344,11.90865l8.66084,14.07386l7.57823,17.32167l6.49563,23.8173l3.24781,16.23907l0,4.33042l15.15646,-8.66084l23.8173,-15.15646l10.82604,-6.49563l15.15646,-5.41302l4.33042,-1.0826l16.23907,0l15.15646,7.57823l9.74344,9.74344l10.82604,16.23907l4.33042,-1.0826l18.40428,-12.99125l19.48688,-10.82604l15.15646,-6.49563l8.66084,-2.16521l15.15646,0l8.66084,3.24781l6.49563,5.41302l7.57823,15.15646l5.41302,22.73469l9.74344,49.7998l12.99125,56.29543l4.33042,14.07386l5.41302,9.74344l5.41302,3.24781l5.41302,2.16521l28.14772,3.24781l-1.0826,5.41302l-6.49563,7.57823l-10.82604,7.57823l-15.15646,8.66084l-15.15646,5.41302l-10.82604,2.16521l-20.56948,0l-18.40428,-4.33042l-12.99125,-5.41302l-11.90865,-8.66084l-7.57823,-8.66084l-7.57823,-15.15646l-5.41302,-18.40428l-11.90865,-58.46064l-3.24781,-5.41302l-10.82604,-6.49563l-2.16521,5.41302l0,11.90865l7.57823,37.89115l4.33042,29.23032l0,11.90865l-3.24781,10.82604l-5.41302,5.41302l-5.41302,4.33042l-38.97376,12.99125l-15.15646,3.24781l-11.90865,0l-6.49563,-4.33042l-5.41302,-14.07386l-5.41302,-23.8173l-9.74344,-61.70845l-3.24781,-16.23907l-4.33042,-5.41302l-2.16521,-1.0826l-6.49563,0l-3.24781,5.41302l0,23.8173l4.33042,24.8999l3.24781,20.56948l0,19.48688l-3.24781,10.82604l-6.49563,9.74344l-10.82604,7.57823l-10.82604,3.24781l-24.8999,0l-23.8173,-5.41302l-9.74344,-5.41302l-7.57823,-7.57823l-5.41302,-10.82604l-2.16521,-8.66084l-11.90865,-124.49951l-3.24781,-19.48688l-4.33042,-11.90865l-7.57823,-12.99125l-8.66084,-9.74344l-15.15646,-10.82604l-20.56948,-8.66084l-18.40428,-4.33042l-17.32167,-2.16521l-16.23907,-1.0826l-12.99125,0l-37.89115,2.16521l-32.47813,3.24781l-29.23032,5.41302l-22.73469,5.41302l-46.55199,15.15646l-40.05636,17.32167l-20.56948,9.74344l-12.99125,7.57823l2.16521,4.33042l14.07386,9.74344l11.90865,5.41302l18.40428,4.33042l9.74344,1.0826l35.72595,0l29.23032,-3.24781l37.89115,-7.57823l44.38678,-12.99125l28.14772,-9.74344l35.72595,-14.07386l31.39553,-12.99125l7.57823,-2.16521l7.57823,0l5.41302,5.41302l5.41302,17.32167l3.24781,16.23907l0,8.66084l-6.49563,3.24781l-33.56074,6.49563l-53.04762,9.74344l-42.22157,7.57823l-47.63459,6.49563l-31.39553,3.24781l-33.56074,2.16521l-28.14772,0l-20.56948,-3.24781l-18.40428,-5.41302l-17.32167,-8.66084l-11.90865,-7.57823l-10.82604,-9.74344l-4.33042,-6.49563l-1.0826,-7.57823l3.24781,-7.57823l7.57823,-8.66084l9.74344,-8.66084l15.15646,-10.82604l21.65209,-12.99125l20.56948,-10.82604l30.31292,-12.99125l46.55199,-17.32167l27.06511,-9.74344l38.97376,-12.99125l36.80855,-8.66084l34.64334,-5.41302l35.72595,-3.24781l17.32167,-1.0826z"/>
 </g>
</svg>