<svg width="2048" height="389" xmlns="http://www.w3.org/2000/svg" version="1.1">
 <g>
  <title>Layer 1</title>
  <path id="svg_2" fill="#dc4b4c" d="m348,62l47,0l15,4l19,9l12,9l11,10l9,11l8,13l7,16l6,22l3,15l0,4l14,-8l22,-14l10,-6l14,-5l4,-1l15,0l14,7l9,9l10,15l4,-1l17,-12l18,-10l14,-6l8,-2l14,0l8,3l6,5l7,14l5,21l9,46l12,52l4,13l5,9l5,3l5,2l26,3l-1,5l-6,7l-10,7l-14,8l-14,5l-10,2l-19,0l-17,-4l-12,-5l-11,-8l-7,-8l-7,-14l-5,-17l-11,-54l-3,-5l-10,-6l-2,5l0,11l7,35l4,27l0,11l-3,10l-5,5l-5,4l-36,12l-14,3l-11,0l-6,-4l-5,-13l-5,-22l-9,-57l-3,-15l-4,-5l-2,-1l-6,0l-3,5l0,22l4,23l3,19l0,18l-3,10l-6,9l-10,7l-10,3l-23,0l-22,-5l-9,-5l-7,-7l-5,-10l-2,-8l-11,-115l-3,-18l-4,-11l-7,-12l-8,-9l-14,-10l-19,-8l-17,-4l-16,-2l-15,-1l-12,0l-35,2l-30,3l-27,5l-21,5l-43,14l-37,16l-19,9l-12,7l2,4l13,9l11,5l17,4l9,1l33,0l27,-3l35,-7l41,-12l26,-9l33,-13l29,-12l7,-2l7,0l5,5l5,16l3,15l0,8l-6,3l-31,6l-49,9l-39,7l-44,6l-29,3l-31,2l-26,0l-19,-3l-17,-5l-16,-8l-11,-7l-10,-9l-4,-6l-1,-7l3,-7l7,-8l9,-8l14,-10l20,-12l19,-10l28,-12l43,-16l25,-9l36,-12l34,-8l32,-5l33,-3l16,-1z"/>
  <path id="svg_3" fill="#dc4b4c" d="m1336,129l18,1l20,4l12,5l13,8l10,8l10,11l8,14l5,13l2,11l0,18l-3,14l-5,12l-10,13l-11,10l-19,12l-25,11l-5,4l-1,2l0,7l6,7l7,5l12,5l4,1l19,0l13,-4l10,-6l11,-11l9,-14l7,-15l8,-24l9,-38l6,-26l5,-13l6,-9l10,-8l19,-8l24,-8l5,-1l10,0l6,3l4,7l2,12l3,51l3,21l4,12l5,5l3,2l7,-1l5,-8l4,-24l2,-19l2,-33l4,-15l7,-9l9,-6l11,-3l8,-1l22,0l8,3l5,4l4,8l4,29l8,67l5,27l5,13l4,6l10,9l11,4l18,2l3,2l-12,12l-13,10l-21,11l-16,6l-17,4l-7,1l-13,0l-8,-2l-11,-6l-12,-12l-9,-6l-6,0l-10,5l-14,12l-10,7l-10,4l-4,1l-23,0l-12,-3l-10,-4l-12,-8l-8,-8l-11,-9l-8,-1l-16,8l-23,11l-27,9l-19,4l-18,2l-26,0l-23,-3l-20,-6l-16,-8l-12,-11l-9,-10l-12,-21l-11,-25l-6,-21l-2,-13l0,-29l4,-21l5,-12l9,-10l10,-9l15,-10l15,-8l17,-6l15,-3l12,-1z"/>
  <path id="svg_4" fill="#dc4b4c" d="m1182,21l8,0l9,3l8,7l5,12l4,17l1,9l0,19l-3,21l-6,21l-6,16l-4,1l0,-12l4,-38l0,-20l-2,-9l-5,-9l-3,-1l-5,28l-1,8l0,21l6,58l9,70l9,50l5,17l6,11l6,4l4,1l24,2l-6,8l-10,9l-18,11l-21,7l-12,2l-23,0l-15,-5l-11,-7l-11,-11l-8,-6l-8,0l-28,14l-6,2l-7,1l-8,0l-16,-4l-14,-7l-11,-9l-11,-13l-8,-13l-8,-18l-5,-17l-3,-21l0,-22l3,-24l5,-19l7,-18l7,-11l10,-10l16,-8l9,-2l15,0l15,4l19,8l2,1l1,-46l0,-21l3,-13l8,-15l9,-9l11,-7l15,-7l21,-7l19,-4z"/>
  <path id="svg_5" fill="#dc4b4c" d="m1928,127l19,0l8,3l6,5l3,9l2,17l4,62l5,58l3,17l5,12l7,7l9,4l13,1l1,5l-7,8l-13,9l-16,8l-12,4l-12,2l-22,0l-10,-3l-12,-7l-9,-8l-9,-5l-4,-1l-13,1l-29,6l-9,1l-26,0l-12,-3l-10,-4l-12,-8l-8,-7l-11,-14l-9,-16l-7,-18l-4,-20l-1,-18l2,-20l6,-21l9,-19l8,-11l9,-10l9,-8l14,-8l10,-4l13,-2l14,0l15,3l12,5l14,7l12,0l12,-5l22,-11l11,-3z"/>
  <path id="svg_6" fill="#dc4b4c" d="m838,139l16,0l17,3l16,5l16,8l13,9l10,9l9,11l8,11l8,17l5,17l3,22l0,9l-3,19l-6,18l-9,16l-12,13l-8,7l-13,8l-14,6l-20,5l-13,2l-11,0l-17,-3l-18,-6l-13,-7l-10,-8l-8,-8l-11,-15l-8,-15l-8,-20l-7,-24l-2,-10l0,-14l5,-19l7,-16l10,-14l9,-10l10,-9l14,-8l18,-6l17,-3z"/>
  <path id="svg_7" fill="#f5f1eb" d="m1839,185l7,1l7,5l8,14l6,18l2,13l0,10l-3,10l-6,8l-4,3l-7,-1l-8,-6l-8,-16l-6,-15l-2,-8l0,-8l4,-11l7,-14l3,-3z"/>
  <path id="svg_8" fill="#f5f1eb" d="m1072,179l5,1l7,7l9,14l8,20l3,13l0,9l-5,12l-4,6l-12,-3l-6,-4l-4,-6l-4,-12l-2,-11l-1,-17l2,-21l2,-7l2,-1z"/>
  <path id="svg_9" fill="#f5f1eb" d="m1333,174l5,2l5,6l5,12l3,15l0,13l-3,16l-4,11l-6,11l-4,4l-4,-8l-5,-15l-4,-17l-2,-17l0,-14l2,-8l7,-8l5,-3z"/>
  <path id="svg_10" fill="#f5f1eb" d="m832,196l8,1l9,7l9,12l7,15l6,20l0,7l-7,9l-6,2l-7,-3l-8,-9l-6,-10l-6,-15l-4,-17l0,-11l3,-6l2,-2z"/>
 </g>
</svg>